<?xml version="1.0" encoding="UTF-8" standalone="no"?>
<!DOCTYPE svg PUBLIC "-//W3C//DTD SVG 1.1//EN"
 "http://www.w3.org/Graphics/SVG/1.1/DTD/svg11.dtd">
<!-- Generated by graphviz version 2.47.3 (20210619.1520)
 -->
<!-- Title: G Pages: 1 -->
<svg width="456pt" height="423pt"
 viewBox="0.00 0.00 455.69 422.77" xmlns="http://www.w3.org/2000/svg" xmlns:xlink="http://www.w3.org/1999/xlink">
<g id="graph0" class="graph" transform="scale(1 1) rotate(0) translate(4 418.77)">
<title>G</title>
<polygon fill="white" stroke="transparent" points="-4,4 -4,-418.77 451.69,-418.77 451.69,4 -4,4"/>
<!-- 0 -->
<g id="node1" class="node">
<title>0</title>
<ellipse fill="black" stroke="black" cx="225.35" cy="-376.43" rx="38.19" ry="38.19"/>
<text text-anchor="middle" x="225.35" y="-372.73" font-family="Times New Roman,serif" font-size="14.00" fill="white">4: &lt;nil&gt;</text>
</g>
<!-- 1 -->
<g id="node2" class="node">
<title>1</title>
<ellipse fill="black" stroke="black" cx="130.35" cy="-263.73" rx="38.19" ry="38.19"/>
<text text-anchor="middle" x="130.35" y="-260.03" font-family="Times New Roman,serif" font-size="14.00" fill="white">2: &lt;nil&gt;</text>
</g>
<!-- 0&#45;&gt;1 -->
<g id="edge1" class="edge">
<title>0&#45;&gt;1</title>
<path fill="none" stroke="black" d="M200.63,-346.63C188.76,-332.8 174.39,-316.06 161.75,-301.33"/>
<polygon fill="black" stroke="black" points="154.94,-293.38 164.86,-298.04 158.19,-297.18 161.45,-300.97 161.45,-300.97 161.45,-300.97 158.19,-297.18 158.03,-303.9 154.94,-293.38 154.94,-293.38"/>
</g>
<!-- _0 -->
<!-- 0&#45;&gt;_0 -->
<!-- 2 -->
<g id="node9" class="node">
<title>2</title>
<ellipse fill="black" stroke="black" cx="363.35" cy="-263.73" rx="38.19" ry="38.19"/>
<text text-anchor="middle" x="363.35" y="-260.03" font-family="Times New Roman,serif" font-size="14.00" fill="white">8: &lt;nil&gt;</text>
</g>
<!-- 0&#45;&gt;2 -->
<g id="edge8" class="edge">
<title>0&#45;&gt;2</title>
<path fill="none" stroke="black" d="M254.95,-351.68C275.69,-335.05 303.57,-312.69 325.86,-294.81"/>
<polygon fill="black" stroke="black" points="333.79,-288.44 328.81,-298.21 329.89,-291.57 325.99,-294.7 325.99,-294.7 325.99,-294.7 329.89,-291.57 323.17,-291.19 333.79,-288.44 333.79,-288.44"/>
</g>
<!-- 3 -->
<g id="node3" class="node">
<title>3</title>
<ellipse fill="black" stroke="black" cx="84.35" cy="-151.04" rx="38.19" ry="38.19"/>
<text text-anchor="middle" x="84.35" y="-147.34" font-family="Times New Roman,serif" font-size="14.00" fill="white">1: &lt;nil&gt;</text>
</g>
<!-- 1&#45;&gt;3 -->
<g id="edge2" class="edge">
<title>1&#45;&gt;3</title>
<path fill="none" stroke="black" d="M115.92,-228.01C111.72,-217.92 107.08,-206.75 102.68,-196.16"/>
<polygon fill="black" stroke="black" points="98.72,-186.64 106.72,-194.14 100.64,-191.25 102.56,-195.87 102.56,-195.87 102.56,-195.87 100.64,-191.25 98.41,-197.6 98.72,-186.64 98.72,-186.64"/>
</g>
<!-- _1 -->
<!-- 1&#45;&gt;_1 -->
<!-- 4 -->
<g id="node7" class="node">
<title>4</title>
<ellipse fill="black" stroke="black" cx="176.35" cy="-151.04" rx="38.19" ry="38.19"/>
<text text-anchor="middle" x="176.35" y="-147.34" font-family="Times New Roman,serif" font-size="14.00" fill="white">3: &lt;nil&gt;</text>
</g>
<!-- 1&#45;&gt;4 -->
<g id="edge6" class="edge">
<title>1&#45;&gt;4</title>
<path fill="none" stroke="black" d="M144.78,-228.01C148.97,-217.92 153.61,-206.75 158.01,-196.16"/>
<polygon fill="black" stroke="black" points="161.97,-186.64 162.29,-197.6 160.05,-191.25 158.13,-195.87 158.13,-195.87 158.13,-195.87 160.05,-191.25 153.98,-194.14 161.97,-186.64 161.97,-186.64"/>
</g>
<!-- 7 -->
<g id="node4" class="node">
<title>7</title>
<ellipse fill="red" stroke="red" cx="38.35" cy="-38.35" rx="38.19" ry="38.19"/>
<text text-anchor="middle" x="38.35" y="-34.65" font-family="Times New Roman,serif" font-size="14.00" fill="white">0: &lt;nil&gt;</text>
</g>
<!-- 3&#45;&gt;7 -->
<g id="edge3" class="edge">
<title>3&#45;&gt;7</title>
<path fill="none" stroke="black" d="M69.92,-115.32C65.72,-105.22 61.08,-94.06 56.68,-83.46"/>
<polygon fill="black" stroke="black" points="52.72,-73.94 60.72,-81.45 54.64,-78.56 56.56,-83.18 56.56,-83.18 56.56,-83.18 54.64,-78.56 52.41,-84.9 52.72,-73.94 52.72,-73.94"/>
</g>
<!-- _3 -->
<!-- 3&#45;&gt;_3 -->
<!-- 5 -->
<g id="node10" class="node">
<title>5</title>
<ellipse fill="red" stroke="red" cx="317.35" cy="-151.04" rx="38.19" ry="38.19"/>
<text text-anchor="middle" x="317.35" y="-147.34" font-family="Times New Roman,serif" font-size="14.00" fill="white">6: &lt;nil&gt;</text>
</g>
<!-- 2&#45;&gt;5 -->
<g id="edge9" class="edge">
<title>2&#45;&gt;5</title>
<path fill="none" stroke="black" d="M348.92,-228.01C344.72,-217.92 340.08,-206.75 335.68,-196.16"/>
<polygon fill="black" stroke="black" points="331.72,-186.64 339.72,-194.14 333.64,-191.25 335.56,-195.87 335.56,-195.87 335.56,-195.87 333.64,-191.25 331.41,-197.6 331.72,-186.64 331.72,-186.64"/>
</g>
<!-- _2 -->
<!-- 2&#45;&gt;_2 -->
<!-- 6 -->
<g id="node15" class="node">
<title>6</title>
<ellipse fill="black" stroke="black" cx="409.35" cy="-151.04" rx="38.19" ry="38.19"/>
<text text-anchor="middle" x="409.35" y="-147.34" font-family="Times New Roman,serif" font-size="14.00" fill="white">9: &lt;nil&gt;</text>
</g>
<!-- 2&#45;&gt;6 -->
<g id="edge14" class="edge">
<title>2&#45;&gt;6</title>
<path fill="none" stroke="black" d="M377.78,-228.01C381.97,-217.92 386.61,-206.75 391.01,-196.16"/>
<polygon fill="black" stroke="black" points="394.97,-186.64 395.29,-197.6 393.05,-191.25 391.13,-195.87 391.13,-195.87 391.13,-195.87 393.05,-191.25 386.98,-194.14 394.97,-186.64 394.97,-186.64"/>
</g>
<!-- 8 -->
<g id="node11" class="node">
<title>8</title>
<ellipse fill="black" stroke="black" cx="271.35" cy="-38.35" rx="38.19" ry="38.19"/>
<text text-anchor="middle" x="271.35" y="-34.65" font-family="Times New Roman,serif" font-size="14.00" fill="white">5: &lt;nil&gt;</text>
</g>
<!-- 5&#45;&gt;8 -->
<g id="edge10" class="edge">
<title>5&#45;&gt;8</title>
<path fill="none" stroke="black" d="M302.92,-115.32C298.72,-105.22 294.08,-94.06 289.68,-83.46"/>
<polygon fill="black" stroke="black" points="285.72,-73.94 293.72,-81.45 287.64,-78.56 289.56,-83.18 289.56,-83.18 289.56,-83.18 287.64,-78.56 285.41,-84.9 285.72,-73.94 285.72,-73.94"/>
</g>
<!-- _5 -->
<!-- 5&#45;&gt;_5 -->
<!-- 9 -->
<g id="node13" class="node">
<title>9</title>
<ellipse fill="black" stroke="black" cx="363.35" cy="-38.35" rx="38.19" ry="38.19"/>
<text text-anchor="middle" x="363.35" y="-34.65" font-family="Times New Roman,serif" font-size="14.00" fill="white">7: &lt;nil&gt;</text>
</g>
<!-- 5&#45;&gt;9 -->
<g id="edge12" class="edge">
<title>5&#45;&gt;9</title>
<path fill="none" stroke="black" d="M331.78,-115.32C335.97,-105.22 340.61,-94.06 345.01,-83.46"/>
<polygon fill="black" stroke="black" points="348.97,-73.94 349.29,-84.9 347.05,-78.56 345.13,-83.18 345.13,-83.18 345.13,-83.18 347.05,-78.56 340.98,-81.45 348.97,-73.94 348.97,-73.94"/>
</g>
</g>
</svg>
